<svg xmlns="http://www.w3.org/2000/svg" viewBox="0 0 249.14 106.93"><defs><style>.cls-1{fill:#ffa3a0;}</style></defs><title>Asset 3</title><g id="Layer_2" data-name="Layer 2"><g id="text"><path d="M73.9,27.86a24.13,24.13,0,1,1-.47-9.76H69.29C68.95,10.3,63.19,5,55.46,5,43.26,5,31.12,17,31.12,29.28,31.12,37.42,37,43,45.15,43c9,0,18.1-6.78,22-15.18Z"/><path d="M91.73.2l7,45.15,2.78,2.31H88.28l2.85-2.31L89.9,37.42H82.52l-1.22,7.93,2.58,2.31h-8.2l2.58-2.31L84.82,2.51,84.14.2ZM83,34.3h6.44L86.11,13Z"/><path d="M136.48,47.65H123.19L126,45.35l-8.41-22.78-2.85,4.88v17.9l2.91,2.31H104.35l2.78-2.31V2.51L104.35.2H117.5l-2.78,2.31V22.3L125.43,3.73,121.5.2h11.25l-4.27,3.53-6,10.3L133.7,45.35Z"/><path d="M137.77.2H155.6v9.9l-3-6.78h-4.47V21.83h1.56l2.85-6.37V31.18l-2.78-6.24h-1.63V44.54h4.47l3-6.78v9.9H137.77l2.71-2.31V2.51Z"/><path d="M183.6,47.65H170.45l2.78-2.31V2.51L170.45.2H183.6l-2.78,2.31V45.35Z"/><path d="M186.86.2h22.37v9.9l-3.05-6.78h-4.34v42l2.58,2.31H191.74l2.51-2.31v-42h-4.34l-3,6.78Z"/><path d="M84.93,104.36l2.58,2.31H79.23l2.58-2.31v-43L79.1,59.21h10l8.61,26.64,7.32-26.64h10.17l-3,2.17v43l2.85,2.31H101.87l2.78-2.31V73.11L95.7,106.93,84.93,71.82Z"/><path d="M131.64,59.21l7,45.15,2.78,2.31H128.18l2.85-2.31-1.22-7.93h-7.39l-1.22,7.93,2.58,2.31h-8.2l2.58-2.31,6.57-42.84L124,59.21Zm-8.74,34.1h6.44L126,72Z"/><path d="M176.38,106.66H163.1l2.78-2.31-8.41-22.78-2.85,4.88v17.9l2.91,2.31H144.25l2.78-2.31V61.51l-2.78-2.31H157.4l-2.78,2.31v19.8l10.71-18.57-3.93-3.53h11.25l-4.27,3.53-6,10.3,11.19,31.32Z"/><path d="M177.68,59.21h17.83v9.9l-3-6.78H188V80.84h1.56l2.85-6.37V90.19L189.61,84H188v19.59h4.47l3-6.78v9.9H177.68l2.71-2.31V61.51Z"/><path d="M223.51,106.66H210.36l2.78-2.31V61.51l-2.78-2.31h13.15l-2.78,2.31v42.84Z"/><path d="M226.77,59.21h22.37v9.9l-3.05-6.78h-4.34v42l2.58,2.31H231.65l2.51-2.31v-42h-4.34l-3,6.78Z"/><path class="cls-1" d="M14.25,66.78a.33.33,0,0,1,.45-.08c.19.09.24.22.13.39l-.93,1.28-1,1.29q-.67.79-1.45,1.6a7,7,0,0,1-1.72,1.33,2.44,2.44,0,0,1-1.55.23,1.3,1.3,0,0,1-1.07-1.07,3.54,3.54,0,0,1,0-1.1,8.36,8.36,0,0,1,.18-1.09q-.57.69-1.17,1.35T5,72.06q-.56.58-1.15,1.12a2.76,2.76,0,0,1-2,.7,1.81,1.81,0,0,1-1.4-.66,1.22,1.22,0,0,1-.34-.65Q.06,72.18,0,71.8A5.76,5.76,0,0,1,.21,70,17.41,17.41,0,0,1,.78,68.3q.29-.69.65-1.38a8.66,8.66,0,0,1,.81-1.29.49.49,0,0,1,.48-.18.78.78,0,0,1,.49.22c.12.13.11.28,0,.45a7.15,7.15,0,0,0-.61,1.26q-.29.75-.51,1.4c-.14.51-.27,1-.4,1.5a6.45,6.45,0,0,0-.2,1.51,1.86,1.86,0,0,0,.07.53,1.13,1.13,0,0,0,.07.26s0,0,0,0a.54.54,0,0,1,0,.11l.09.07v0a0,0,0,0,1,0,0,.11.11,0,0,1,.08,0l.12,0h.2a1.84,1.84,0,0,0,1.07-.49q.54-.46.92-.82t1-1l1-1.06a27.68,27.68,0,0,0,2.16-3l.49-1.09q.25-.56.54-1.06a.66.66,0,0,1,.77-.3,1,1,0,0,1,.34.23.28.28,0,0,1,.05.38q-.47.84-.85,1.72T9,68.25q-.17.45-.34,1a7,7,0,0,0-.25,1,3.38,3.38,0,0,0-.16.72,2,2,0,0,0,0,.73.65.65,0,0,0,.07.26.16.16,0,0,0,.05.11l.09.06h0a.58.58,0,0,0,.24,0A1.29,1.29,0,0,0,9.27,72l.72-.4a10.37,10.37,0,0,0,1.55-1.39q.71-.77,1.37-1.59l.67-.9Z"/><path class="cls-1" d="M24.95,65.55c.08-.14.23-.17.43-.1s.25.2.15.37q-.77,1.15-1.65,2.25A18,18,0,0,1,22,70.12,11.71,11.71,0,0,1,20.9,71a3.08,3.08,0,0,1-1.26.55,1.86,1.86,0,0,1-.86-.1.87.87,0,0,1-.58-.6,2.07,2.07,0,0,1,0-1.08c.09-.37.19-.72.31-1s.31-.91.5-1.34.37-.89.54-1.35l.32-.82a6.11,6.11,0,0,0,.27-.89l-.26.19-.23.19a20.06,20.06,0,0,0-2.88,2.89,15.26,15.26,0,0,0-2.15,3.45.49.49,0,0,1-.2.26c0,.11,0,.22-.05.34a2.38,2.38,0,0,1-.09.34.41.41,0,0,1-.34.35.83.83,0,0,1-.54,0,.32.32,0,0,1-.2-.38q.4-1.91.8-3.84t.8-3.87c0-.26.24-.38.59-.37s.5.16.46.42l-.38,1.81q-.19.89-.34,1.8a14.71,14.71,0,0,1,1.85-2.22,23.47,23.47,0,0,1,2.13-1.87,9,9,0,0,1,.87-.6.84.84,0,0,1,1,0,.74.74,0,0,1,.32.77,6.1,6.1,0,0,1-.17.87A13.61,13.61,0,0,1,20,67.37a9.33,9.33,0,0,0-1,2.52,3.38,3.38,0,0,0-.06.74q0,.38.51.32a2.56,2.56,0,0,0,1.33-.64q.64-.55,1.12-1a19.46,19.46,0,0,0,1.6-1.8Q24.27,66.53,24.95,65.55Z"/><path class="cls-1" d="M38.67,55.72a.29.29,0,0,1,.08.57q-2.15.4-4.31.73t-4.3.81l-1.37.34-1.37.34a.93.93,0,0,0-.08.24,1,1,0,0,1-.08.24q-.58,2-1.12,4.11t-.92,4.16q-.14.68-.24,1.37A8.31,8.31,0,0,0,24.88,70a1.93,1.93,0,0,0,.1.76.15.15,0,0,0,.05.11l.11,0,.11,0a2.46,2.46,0,0,0,.95-.44c.31-.22.58-.44.84-.65a8.32,8.32,0,0,0,.91-.89l.86-1q.5-.61,1-1.21t.88-1.24a.35.35,0,0,1,.45-.1c.19.08.23.2.13.37a25.44,25.44,0,0,1-2.47,3.23l-1,1a7.48,7.48,0,0,1-1.08.9,7.21,7.21,0,0,1-.88.47,1.61,1.61,0,0,1-1,.13.67.67,0,0,1-.55-.49,5.38,5.38,0,0,1-.15-.73,7.76,7.76,0,0,1,0-1.41q.08-.72.18-1.4.33-2.17.8-4.32t1-4.23l-.24.05-.24.05q-1,.29-2,.62-.45.14-.89.31a2.62,2.62,0,0,1-.86.19.21.21,0,0,1-.25-.12.2.2,0,0,1,0-.24,2.18,2.18,0,0,1,1-.51q.58-.15,1.06-.33,1-.36,2-.7a1.5,1.5,0,0,0,.32-.08,1.49,1.49,0,0,1,.32-.08q.56-2.16,1.17-4.27t1.29-4.25q.24-.8.5-1.61t.54-1.62c.1-.24.19-.5.28-.77a6.89,6.89,0,0,1,.32-.78.61.61,0,0,1,.5-.28,1,1,0,0,1,.6.13c.17.11.19.26.06.46a3.62,3.62,0,0,0-.35.84,7.19,7.19,0,0,1-.31.87q-.27.89-.56,1.77t-.56,1.77Q29.27,52.1,28.72,54t-1.07,3.7q1.15-.35,2.28-.61,2.13-.51,4.32-.9A27.46,27.46,0,0,1,38.67,55.72Z"/><path class="cls-1" d="M37.21,63.92c.08-.14.23-.17.43-.1s.25.2.15.37q-.45.68-.93,1.32t-1,1.26q-.66.82-1.43,1.62a6.76,6.76,0,0,1-1.74,1.31,2.46,2.46,0,0,1-1.55.23,1.24,1.24,0,0,1-1-1.08,4.13,4.13,0,0,1,.08-2q.29-1,.59-1.94t.68-1.69a15.52,15.52,0,0,1,.85-1.64.64.64,0,0,1,.77-.3,1,1,0,0,1,.34.23.28.28,0,0,1,.05.38,15,15,0,0,0-.86,1.68q-.39.88-.73,1.78c-.11.32-.22.65-.32,1s-.19.66-.27,1-.08.49-.11.75a2.91,2.91,0,0,0,0,.7.65.65,0,0,0,.07.26l.1.14,0,0,0,0a.72.72,0,0,0,.23,0,1.11,1.11,0,0,0,.52-.15,3,3,0,0,0,.72-.4,9.83,9.83,0,0,0,1.59-1.39q.71-.77,1.34-1.55l.71-.93Q36.89,64.38,37.21,63.92Zm-4.43-4.82a.63.63,0,0,1-.06-.15.35.35,0,0,1,0-.27l.06-.12s0,0,.07,0,0-.07.06-.12l0,0,.1-.09.26-.11.11,0c.05,0,.08,0,.08,0a.36.36,0,0,1,.16,0,.16.16,0,0,1,.12,0v0h0l.09.07a0,0,0,0,1,0,0l.09.06v.08a.34.34,0,0,1,.06.15s0,.06,0,.11v0s0,0,0,0a.16.16,0,0,1,0,.12l0-.08,0,.08a1.71,1.71,0,0,1-.05.2.49.49,0,0,1-.17.14l-.14.1H33.6l-.19,0a.11.11,0,0,1-.08,0l-.11,0v0L33,59.29h0A.57.57,0,0,1,32.79,59.09Zm.79-.72h0l.12,0A.11.11,0,0,0,33.58,58.37Zm.09.41v0s0,0,0,0Z"/><path class="cls-1" d="M47.52,39.74a1.45,1.45,0,0,1,.68.91A5.23,5.23,0,0,1,48.4,42a8.9,8.9,0,0,1,0,1.16,13.68,13.68,0,0,1-.57,3.23,23.33,23.33,0,0,1-1.18,3.07A25.29,25.29,0,0,1,42.94,55q-2.21,2.54-4.53,4.85-.2.84-.38,1.67t-.3,1.7c-.08.55-.14,1.11-.16,1.66a12.17,12.17,0,0,0,0,1.68,6.92,6.92,0,0,0,.14,1,1.3,1.3,0,0,0,.54.86.93.93,0,0,0,1.07,0,3.19,3.19,0,0,0,.92-.9,4.18,4.18,0,0,0,.55-1,.39.39,0,0,1,.44-.16c.21,0,.29.15.24.34A4.85,4.85,0,0,1,40.8,68a3.44,3.44,0,0,1-1.14,1,2,2,0,0,1-1.42.19A1.85,1.85,0,0,1,36.87,68,6,6,0,0,1,36.5,66q0-1.12,0-1.86a22.74,22.74,0,0,1,.58-3.77q.45-1.86,1-3.7t1.11-3.59q.57-1.78,1.23-3.56T41.83,46q.74-1.72,1.64-3.39l.77-1.36a3.71,3.71,0,0,1,1-1.16,3.17,3.17,0,0,1,1.09-.49A1.62,1.62,0,0,1,47.52,39.74Zm0,4.1a9.89,9.89,0,0,0,.1-1.15,7.4,7.4,0,0,0-.06-1.17c0-.15-.1-.35-.16-.62a1,1,0,0,0-.31-.56.65.65,0,0,0-.76.06,3.55,3.55,0,0,0-.72.71q-.33.43-.49.68l-.74,1.43-.74,1.43q-.66,1.44-1.27,2.91t-1.15,3q-.53,1.5-1,3.05t-.94,3.12q-.1.4-.22.82c-.08.28-.16.56-.26.83q2-2,3.92-4.25a22,22,0,0,0,3.11-4.8,19.55,19.55,0,0,0,1.09-2.68A14.3,14.3,0,0,0,47.49,43.84Z"/><path class="cls-1" d="M69.36,57.2a.57.57,0,0,1,.53.07c.21.11.23.26.08.43a4.68,4.68,0,0,1-1.58,1A3.09,3.09,0,0,1,66,59a.42.42,0,0,1-.06.16q-.41.71-.79,1.34-.57.93-1.31,1.89a10.11,10.11,0,0,1-1.65,1.71,4.35,4.35,0,0,1-3.28,1.07,2,2,0,0,1-1.16-.44,1.59,1.59,0,0,1-.51-.94l-.06.11-.06.1a16.91,16.91,0,0,1-1.43,1.87,3.69,3.69,0,0,1-2,1.21A2.74,2.74,0,0,1,52,66.9a1.61,1.61,0,0,1-1-1.3A4.88,4.88,0,0,1,51,63.68a14.67,14.67,0,0,1,.53-1.83q.32-.78.71-1.52a9.18,9.18,0,0,1,.88-1.39.54.54,0,0,1,.5-.18.82.82,0,0,1,.47.21c.12.11.11.27,0,.47s-.18.33-.29.56-.21.45-.28.64a8.16,8.16,0,0,0-.36.92q-.15.46-.29.91c-.09.27-.18.54-.26.81a5.42,5.42,0,0,0-.18.83c0,.29-.07.56-.08.82s0,.44,0,.54a.7.7,0,0,1,.08.16.89.89,0,0,1,0,.17v.11a.11.11,0,0,0,0,.07.11.11,0,0,1,0,.07l0,0,0,0,0,0a0,0,0,0,0,0,0,.11.11,0,0,1,.08,0h.08a.85.85,0,0,0,.27,0A1.62,1.62,0,0,0,54,66a4.1,4.1,0,0,0,1.67-1.4q.68-1,1.22-1.88l.38-.65.38-.65a12.77,12.77,0,0,1,.68-1.6q.4-.79.8-1.54c.08-.19.26-.28.54-.27a.84.84,0,0,1,.34.09.22.22,0,0,1,.13.23.42.42,0,0,1,0,.19q-.42.91-.88,1.82a12,12,0,0,0-.76,1.88,4.47,4.47,0,0,0-.17,1.36q0,.71.91.75a3,3,0,0,0,2.21-.8,14.59,14.59,0,0,0,1.66-1.73q.43-.56.82-1.13l.77-1.17a5.19,5.19,0,0,1,.26-.48c.1-.16.18-.31.26-.48a.66.66,0,0,1-.21-.4.62.62,0,0,1,.22-.67,1,1,0,0,1,.68-.24.58.58,0,0,1,.54.41.81.81,0,0,1,0,.62A1.93,1.93,0,0,0,67.92,58Q68.71,57.52,69.36,57.2Z"/><path class="cls-1" d="M76.26,58.84a.44.44,0,0,1,.53-.09c.22.09.26.23.13.43a16.42,16.42,0,0,1-2.86,3.51A13.84,13.84,0,0,1,72.38,64a4.55,4.55,0,0,1-2,.79,3.32,3.32,0,0,1-1.51-.15,2,2,0,0,1-1.15-.93,2.82,2.82,0,0,1-.4-1.44,4.47,4.47,0,0,1,.25-1.48,11.69,11.69,0,0,1,.76-1.72,8.63,8.63,0,0,1,1.05-1.53,6.78,6.78,0,0,1,1.45-1.18A2.72,2.72,0,0,1,72.6,56a3,3,0,0,1,1,.31,1.1,1.1,0,0,1,.63.79,1.07,1.07,0,0,1,0,.64,1.57,1.57,0,0,1-.32.52,2.59,2.59,0,0,1-.74.72,4.59,4.59,0,0,1-.92.47,7.22,7.22,0,0,1-1.68.55q-.88.18-1.76.29a6,6,0,0,0-.45,1.53,2.78,2.78,0,0,0,0,1.1,1.46,1.46,0,0,0,.6.91,1.4,1.4,0,0,0,1.31.25,7,7,0,0,0,1.28-.52,10.22,10.22,0,0,0,2.59-2.14Q75.28,60.13,76.26,58.84Zm-4.55-1.95a4.39,4.39,0,0,0-1.29.89,6.51,6.51,0,0,0-1,1.23,5,5,0,0,0-.31.58l1.34-.35a9.42,9.42,0,0,0,1.29-.46,5.69,5.69,0,0,0,.74-.41,2,2,0,0,0,.6-.58,1.93,1.93,0,0,0,.15-.33.44.44,0,0,0,0-.19v0l0-.11a1.26,1.26,0,0,0-.88-.37A2.47,2.47,0,0,0,71.72,56.89Z"/></g></g></svg>