<svg xmlns="http://www.w3.org/2000/svg" viewBox="0 0 268.03 89.53"><title>small bite big taste</title><g id="Layer_2" data-name="Layer 2"><g id="text"><path d="M30.95,33.1a26.19,26.19,0,0,0,3,1.74A12.17,12.17,0,0,0,36.53,36q.08,0,4.16-1.76Q47.45,31,53,28.83a44.84,44.84,0,0,1,8.78-2.58,6.91,6.91,0,0,1,1.36-.19.73.73,0,0,1,.53.27c.17.14.25.24.25.29s-.08.14-.25.25a6.38,6.38,0,0,1-2.06.76,67.48,67.48,0,0,0-9.32,3.17q-5.76,2.33-9.74,4.24a34.12,34.12,0,0,0-4,2,7.41,7.41,0,0,0,.92.55,22.5,22.5,0,0,1,2.54,1.76,22.41,22.41,0,0,1,2.37,2.1q4.87,5.38,1.93,14.62-2.77,9-13.65,18.61a91.53,91.53,0,0,1-13.27,9.81q-6.51,3.88-11.13,4.72a15.1,15.1,0,0,1-1.91.27,10.46,10.46,0,0,1-1.58-.1Q1,88.58.16,84.17a20.83,20.83,0,0,1-.11-4.28,24.32,24.32,0,0,1,.61-4.62A49.45,49.45,0,0,1,11.25,55.19,75,75,0,0,1,31.83,38.77l.92-.55.84-.48.59-.34.34-.19q.17-.17-.63-.63-.38-.21-.92-.46A19.5,19.5,0,0,1,29.6,34a9.34,9.34,0,0,1-2.18-2.54,6.71,6.71,0,0,1-.92-3.32,13.71,13.71,0,0,1,.76-4.35,32.09,32.09,0,0,1,2.56-5.71A39.92,39.92,0,0,1,36.7,9.33a35.78,35.78,0,0,1,8.53-6.51A11.71,11.71,0,0,1,49,1.62a4.24,4.24,0,0,1,2.71.31,3.19,3.19,0,0,1,1,1.2,3.46,3.46,0,0,1,.42,1.57,9.79,9.79,0,0,1-.95,3.57A32.19,32.19,0,0,1,49.57,13a44.23,44.23,0,0,1-3.51,4.75q-.8.88-2.65,2.69t-3.51,3.32a22.3,22.3,0,0,1-2,1.68.76.76,0,0,1-.71,0,.61.61,0,0,1-.34-.57,46.37,46.37,0,0,1,4.45-4.66q2.9-2.86,3.95-4.05a23.83,23.83,0,0,0,2.1-2.83,28.37,28.37,0,0,0,2.65-4.58,20.18,20.18,0,0,0,.88-2.08,5.83,5.83,0,0,0,.25-1.49A2.9,2.9,0,0,0,51,3.51a1.21,1.21,0,0,0-1.11-.44,9.53,9.53,0,0,0-4.16,1.28,30.61,30.61,0,0,0-5.19,3.49,36.76,36.76,0,0,0-4.93,4.85,37,37,0,0,0-6.09,9.43Q27.42,27,28.17,29.57a6.59,6.59,0,0,0,1.07,1.89A7.47,7.47,0,0,0,30.95,33.1Zm5,36.12q1.51-1.51,2.75-3t2.25-3a33.44,33.44,0,0,0,1.81-2.94,29,29,0,0,0,1.41-3,21.88,21.88,0,0,0,1-3.11,14.34,14.34,0,0,0,.46-6.68,10.78,10.78,0,0,0-2.52-5.12,18,18,0,0,0-5.42-3.95l-1.13-.59-2.14,1.2q-1.85,1-4.07,2.31T25,44.88q-3.11,2.2-6,4.64a61.9,61.9,0,0,0-6,5.9,52.17,52.17,0,0,0-5.42,7.16,46.44,46.44,0,0,0-3.4,6.89,44.78,44.78,0,0,0-2.31,7.1A21.55,21.55,0,0,0,1.5,81.1a12,12,0,0,0,.38,3.78A4.33,4.33,0,0,0,4,87.49a5.6,5.6,0,0,0,2.65.29,14.32,14.32,0,0,0,3.49-.71,54.48,54.48,0,0,0,12.73-6.89A87.05,87.05,0,0,0,35.94,69.22Z"/><path d="M78.45,26.55q.17.55-1.51,1.57a5.71,5.71,0,0,1-2.77,1,1.86,1.86,0,0,1-.69-.13,1.71,1.71,0,0,1-.46-.25c-.1-.08-.25-.23-.44-.44a5.12,5.12,0,0,0-.5-.48,11.12,11.12,0,0,0-1,.63l-.86.59q-.31.21-.76.46a3.27,3.27,0,0,1-.67.31l-.59.13a.57.57,0,0,1-.52-.1,1.43,1.43,0,0,1-.59-.63,1.79,1.79,0,0,1-.25-.84q0-.71-1.39.17a4.2,4.2,0,0,0-.55.34,8.59,8.59,0,0,1-1.66.88q-.53.17-.69-.17-.54-.59.42-2.48a3.3,3.3,0,0,1,.17-.38,7.67,7.67,0,0,1,.57-1,.58.58,0,0,1,.48-.25.6.6,0,0,1,.44.15.54.54,0,0,1,.17.29c0,.1,0,.27,0,.5a5.72,5.72,0,0,0,.06.61.72.72,0,0,1,.17-.1l.27-.13.34-.17.38-.19.36-.15.34-.11.25,0a1.05,1.05,0,0,1,.57.21,2.08,2.08,0,0,1,.57.59,1.69,1.69,0,0,1,.29.71l.21.63,1.51-1a7.21,7.21,0,0,1,2.14-1.2q.5-.06,1.26.69l.71.8L76,26.8a7.31,7.31,0,0,1,1.79-.67A.62.62,0,0,1,78.45,26.55Z"/><path d="M93.69,14.7q3.95-8.82,5.08-9.37a1.45,1.45,0,0,1,1.64.5q.21,1.34-4.66,10l-1.39,2.37q-.38.65-1.09,2.21T92,23.27q-.53,1.3-2,5Q87.31,34.78,86.07,38a31.56,31.56,0,0,0-1.32,3.82q-.08.88-.67,1.05-.42.13-.59-.38-.34-.76,1-4.54t2.73-7.25q1.43-3.47,1.39-3.51l-.13.08-.1.1-.15.17-.15.19-.19.21-.21.21a13.08,13.08,0,0,1-1.89,2,17.34,17.34,0,0,1-2.14,1.62,3.35,3.35,0,0,1-1.51.63,1.85,1.85,0,0,1-1.47-.78,3.46,3.46,0,0,1-.71-2l-.08-.71a2.85,2.85,0,0,0-.57.4l-.84.67a9,9,0,0,1-1,.67,7.86,7.86,0,0,1-1.09.55,2,2,0,0,1-1,.13,1.4,1.4,0,0,1-.84-.4,1.62,1.62,0,0,1-.21-.88q.08-.92,2-2.88a11.25,11.25,0,0,1,3.3-2.54,2.24,2.24,0,0,1,1.26-.21,1.13,1.13,0,0,1,.88.5q.38.8,0,1.13a4,4,0,0,0-.29,1.74,6.17,6.17,0,0,0,.13,2.12.92.92,0,0,0,.31.65.7.7,0,0,0,.63,0,5.56,5.56,0,0,0,1.16-.69,12.24,12.24,0,0,0,1.72-1.53q.76-.82,2.1-2.58a31.54,31.54,0,0,0,2.12-3q.94-1.51,1.91-3.4T93.69,14.7Zm-17.64,15,.76-.4a6.13,6.13,0,0,0,.71-.53q.46-.38,1-.84,1.76-1.76,1.3-1.64a9.7,9.7,0,0,0-2.69,2.27q-.29.29-.63.67Z"/><path d="M106.33.25q.55.46-.25,1.6a70.26,70.26,0,0,0-3.63,7q-2.71,5.69-5.21,11.84t-2.5,7.88q0,1.13.8,1.39a3,3,0,0,0,2.14-.42A22.85,22.85,0,0,0,100,28.18q1.55-1,2.48-1.68t1.3-.21q.34.71-1.72,2.39-.63.5-1.43,1.05a15.2,15.2,0,0,1-3.51,1.81,3.39,3.39,0,0,1-2.42,0,2.75,2.75,0,0,1-1.18-1.11,4.73,4.73,0,0,1-.25-2,9.74,9.74,0,0,1,.15-1.87,20.81,20.81,0,0,1,.65-2.25q1.51-4.49,5.71-13.59T105.12.34A.78.78,0,0,1,106.33.25Z"/><path d="M127.08,26q.76,0,.76.46t-.92.88a18.54,18.54,0,0,1-3.53.88q-2.18.5-2.71.69a1.63,1.63,0,0,0-.78.53,13.56,13.56,0,0,1-1.72,1.87,19.59,19.59,0,0,1-2,1.7,3.58,3.58,0,0,1-1.34.59.77.77,0,0,1-.76-.46A1.17,1.17,0,0,1,114,32a6.73,6.73,0,0,1,1.3-1.68,9.57,9.57,0,0,1,2.65-2,6.45,6.45,0,0,0,1.3-.84,4.54,4.54,0,0,0,.71-1.26,6.72,6.72,0,0,0,.57-1.43,4.67,4.67,0,0,0,.19-1.11q0-.4-.17-.44A3.48,3.48,0,0,0,119,24a15.35,15.35,0,0,0-2.12,1.85,23.26,23.26,0,0,0-4.2,6.09q-.84,1.89-1.6,1.26a.77.77,0,0,1-.25-.63,8.45,8.45,0,0,1,.48-1.26q.48-1.13,1.43-3.13t2-4q8-16.34,9.51-19.13t2.16-3l0,0a.82.82,0,0,1,.69.06.56.56,0,0,1,.36.48,4.58,4.58,0,0,1-.8,1.3,19,19,0,0,0-1,1.66q-.67,1.2-1.7,3.28t-2,4.07L119.42,18q-1.53,3.17-2.67,5.4l.92-.63q2.9-2.1,4.16-.84a1.33,1.33,0,0,1,.42.57,3.66,3.66,0,0,1,.08.94,5.82,5.82,0,0,1-.23,1.58q-.23.82-.4,1.26t-.13.52s.2,0,.5,0l1.15-.23,1.43-.27,1.43-.23A7.71,7.71,0,0,1,127.08,26Z"/><path d="M146.61,17.43q-2.52.21-3.17.31t-.74.36a35.34,35.34,0,0,0-1.51,4.14q-1.22,3.68-1.85,6a92.82,92.82,0,0,0-3.53,17.39q-.13,2.23.25,2a.77.77,0,0,1,.55,0q.67.21.08,1.34T135.44,50c-.14,0-.34-.13-.59-.38a1.85,1.85,0,0,1-.59-1.2,19.45,19.45,0,0,1,0-2.79q.38-7.65,5-22.64l.55-2q-.13.17-1.55,2.44a56,56,0,0,1-3.55,4.94,28.37,28.37,0,0,1-4.56,4.6,11,11,0,0,1-3.38,2,2,2,0,0,1-2.12-.48q-.8-.76-.5-2.77a13.1,13.1,0,0,1,1.55-4.33q1.09-2.23,2-1.68a.51.51,0,0,1,.34.52,1.32,1.32,0,0,1-.34.82,10.31,10.31,0,0,0-1.43,2.81,8.28,8.28,0,0,0-.67,2.86q0,.46.15.55a.89.89,0,0,0,.48.08q1-.08,3.25-2A30.74,30.74,0,0,0,133.72,27q1.22-1.47,3.55-5a26.53,26.53,0,0,0,2.33-3.84A4.89,4.89,0,0,0,138,18q-1.37,0-3.32.21t-2.75.36a1.59,1.59,0,0,1-1.07,0,.59.59,0,0,1-.4-.59q0-.67,1.39-1a40.78,40.78,0,0,1,5.33-.57l3.53-.25a31.49,31.49,0,0,0,1.64-2.9q1.39-2.6,2.44-4.75,1.72-3.49,2.63-5t1.41-1.49a1,1,0,0,1,.71.34.49.49,0,0,1,.15.27,1.38,1.38,0,0,1,0,.44,3.47,3.47,0,0,1-.23.67q-.17.38-.48,1t-.71,1.37l-1,1.87-1.32,2.54q-.61,1.16-1,2T144.24,14a9.7,9.7,0,0,0-.4,1q-.13.4-.21.63a2.55,2.55,0,0,0-.13.53q3.95-.34,6-.38t2.81-.06q.71,0,.84.19.5.67-1,1l-.55.08-1.07.1-2,.17Q147.45,17.39,146.61,17.43Zm-16.17,4.79q.71.21-.5,1.68a3.47,3.47,0,0,1-1.05.82q-.5.23-.71,0a.75.75,0,0,1-.15-.8,1.77,1.77,0,0,1,.61-.88Q129.94,22,130.44,22.22Z"/><path d="M154.67,26.21q.42.38.08.76a11.15,11.15,0,0,1-1.85,1.34,34.27,34.27,0,0,1-7.33,3.7q-3.34,1.13-4.77.63a2.82,2.82,0,0,1-.8-.55,1.85,1.85,0,0,1-.44-2,5.61,5.61,0,0,1,1.83-2.6q2.1-2.06,3.86-2,1.22,0,1.22,1.13a2.72,2.72,0,0,1-.95,1.66,7.94,7.94,0,0,1-2.21,1.62,2.81,2.81,0,0,1-1,.4.74.74,0,0,1-.59-.31c-.17-.11-.28-.15-.34-.13s-.13.18-.21.46-.17.68,0,.78a2.42,2.42,0,0,0,1.22,0,19.75,19.75,0,0,0,7.14-2.69q3.57-2,4.24-2.27T154.67,26.21ZM143.8,27.55l-.36.21a3.58,3.58,0,0,0-.34.25l-.27.23c-.08.07-.14.1-.17.1l.42-.17a4.9,4.9,0,0,0,1.13-.8Z"/><path d="M157.15,29.53q.21-1.09.88-1.09.5,0,.65.61a2.54,2.54,0,0,1-.1,1.39,2.66,2.66,0,0,1-.8,1.24,2.12,2.12,0,0,1-1,.44.57.57,0,0,1-.65-.27q-.08-.25.42-1.07A4.36,4.36,0,0,0,157.15,29.53Z"/><path d="M187.27,26q.76,0,.76.46t-.92.88a18.54,18.54,0,0,1-3.53.88q-2.18.5-2.71.69a1.63,1.63,0,0,0-.78.53,13.56,13.56,0,0,1-1.72,1.87,19.59,19.59,0,0,1-2,1.7,3.58,3.58,0,0,1-1.34.59.77.77,0,0,1-.76-.46A1.17,1.17,0,0,1,174.2,32a6.73,6.73,0,0,1,1.3-1.68,9.57,9.57,0,0,1,2.65-2,6.45,6.45,0,0,0,1.3-.84,4.54,4.54,0,0,0,.71-1.26,6.72,6.72,0,0,0,.57-1.43,4.67,4.67,0,0,0,.19-1.11q0-.4-.17-.44a3.48,3.48,0,0,0-1.62.8A15.35,15.35,0,0,0,177,25.83a23.26,23.26,0,0,0-4.2,6.09q-.84,1.89-1.6,1.26a.77.77,0,0,1-.25-.63,8.45,8.45,0,0,1,.48-1.26q.48-1.13,1.43-3.13t2-4q8-16.34,9.51-19.13t2.16-3l0,0a.82.82,0,0,1,.69.06.56.56,0,0,1,.36.48,4.58,4.58,0,0,1-.8,1.3,19,19,0,0,0-1,1.66q-.67,1.2-1.7,3.28t-2,4.07L179.6,18q-1.53,3.17-2.67,5.4l.92-.63q2.9-2.1,4.16-.84a1.33,1.33,0,0,1,.42.57,3.66,3.66,0,0,1,.08.94,5.82,5.82,0,0,1-.23,1.58q-.23.82-.4,1.26t-.13.52s.2,0,.5,0l1.15-.23,1.43-.27,1.43-.23A7.71,7.71,0,0,1,187.27,26Z"/><path d="M193.73,27.39q2.65-1.81,2.9-1a1.11,1.11,0,0,1,0,.34,1.05,1.05,0,0,1-.46.8q-.46.38-2.81,1.89a29.07,29.07,0,0,1-5.63,2.94q-1.93.63-2.86-.17a1.9,1.9,0,0,1-.61-1.11,3.66,3.66,0,0,1,.32-1.57A8,8,0,0,1,186,26.61q.9-1.11,1.49-.78.67.5-.13,1.47a11.43,11.43,0,0,0-.95,1.74,4.44,4.44,0,0,0-.48,1.57q0,.46.34.52a3.52,3.52,0,0,0,1.43-.36A45.39,45.39,0,0,0,193.73,27.39Zm-5-3.32a1.5,1.5,0,0,1-.46-.25.72.72,0,0,1-.21-.69,1,1,0,0,1,.5-.65q1.6-.8,2.23-.25.29.29-.13.71a1.76,1.76,0,0,1-.55.48,7,7,0,0,1-.82.46A1.61,1.61,0,0,1,188.69,24.07Z"/><path d="M210.49,26.08a.84.84,0,0,1,.8.06.45.45,0,0,1,.21.57q-.08.17-4.07,3T203,33.52l-.86,1.81q-.74,1.55-1.39,2.75T199,41a32.85,32.85,0,0,1-2.39,3.53,34.82,34.82,0,0,1-2.92,3.32,15.17,15.17,0,0,1-3.07,2.63,1.28,1.28,0,0,1-1.64-.1,2,2,0,0,1-.29-1,6.57,6.57,0,0,1,.76-2.08,23.29,23.29,0,0,1,1.6-2.84,79.57,79.57,0,0,1,5.12-6.53A44.3,44.3,0,0,1,200.75,33q.34-.25,1-.88.13-.38.42-1.39t.53-2.06a8.36,8.36,0,0,0,.23-1.39c0-.28,0-.43-.08-.46a1.16,1.16,0,0,0-.55.13q-.29.17-3.07,1.93A16.73,16.73,0,0,1,195.5,31a1.71,1.71,0,0,1-1.89-.27,2,2,0,0,1-.08-2.6,7.37,7.37,0,0,1,3.11-2.73,4.66,4.66,0,0,1,1.79-.61,1.77,1.77,0,0,1,1.11.17,7.54,7.54,0,0,1,.71.57,6,6,0,0,0,.5.42,2.78,2.78,0,0,0,.59-.23q.5-.23,1-.4a2.26,2.26,0,0,1,1.07-.08,1.24,1.24,0,0,1,.9.57,1.73,1.73,0,0,1,.29,1q0,.55-.61,3.49l1.26-.88a32.63,32.63,0,0,1,2.94-2A19.16,19.16,0,0,1,210.49,26.08ZM196.17,42.34q.84-1.22,1.7-2.56t1.39-2.31a3.72,3.72,0,0,0,.48-1.05q-.13-.13-2.18,2.29t-4.24,5.4a19.77,19.77,0,0,0-2.56,4.12q-.21.67,2.31-2.1A41.22,41.22,0,0,0,196.17,42.34Zm-.55-13.19a13.12,13.12,0,0,0,2.12-1.26q1.41-1,1.41-1.18c0-.2-.18-.31-.55-.34a2.18,2.18,0,0,0-1.09.21,7.24,7.24,0,0,0-2.35,1.81q-.92,1-.38,1A2.93,2.93,0,0,0,195.62,29.15Z"/><path d="M242.79,15.16a64.36,64.36,0,0,1-7.85.82q-7,.53-7.22.61-.38.13-1.45,2.12t-2.14,4.56a26.72,26.72,0,0,0-1.41,4q-.92,3.28-.29,3.7t4.49-1.76q.59-.29,1.34-.76a40.16,40.16,0,0,0,4.49-3,7.11,7.11,0,0,1,1.62-1.11,1,1,0,0,1,1,.06.79.79,0,0,1,.42.71,1,1,0,0,0,.21.67q.21.17,0,1.68-.59,3.57.17,4.79.5.59.34.88t-.61.23a1.41,1.41,0,0,1-.9-.48,2.73,2.73,0,0,1-.63-1.34,7.54,7.54,0,0,1-.17-1.45q0-.61,0-.61a4.25,4.25,0,0,0-.8.76,6.78,6.78,0,0,1-1.41,1,2.92,2.92,0,0,1-1.32.42,1.36,1.36,0,0,1-.95-.5,1.23,1.23,0,0,1-.44-.92v-.5l-1,.55q-.55.34-1.34.76t-1.53.78q-.74.36-1.36.61a4.65,4.65,0,0,1-.92.29,2.56,2.56,0,0,1-1.49-.19,1.73,1.73,0,0,1-.95-.94,3.4,3.4,0,0,1-.23-1.64,13.58,13.58,0,0,1,.29-2.06,18.18,18.18,0,0,1,.69-2.31q.46-1.26.92-2.39t1-2.27q.52-1.13.95-1.93l.76-1.45a5.75,5.75,0,0,0,.38-.82q.29,0-4.58.08h-.34l-.08-.5q0-.5.61-.74a15.8,15.8,0,0,1,3-.44l2.52-.25,1.51-2.6q2.86-4.58,5.44-8.13t3.38-4a.64.64,0,0,1,.65,0,.62.62,0,0,1,.31.57,25.76,25.76,0,0,1-1.93,2.9q-2.14,2.86-4.79,6.91t-2.48,4.22s.82,0,2.37-.08l5.42-.29q3.09-.17,4.39-.17a16.32,16.32,0,0,1,1.89,0,.38.38,0,0,1,.38.34A.45.45,0,0,1,242.79,15.16ZM233.59,27q-.17,0-.9.73a15.17,15.17,0,0,0-1.2,1.32q-.46.71-.21.63a3.94,3.94,0,0,0,1.34-1.18Q233.8,27.13,233.59,27Z"/><path d="M268,15.37a.55.55,0,0,1-.38.59l-.92,0-2.27.1-2.65.1-5.54.13-.5.76q-.5.84-2.33,4.49t-3.72,7.71q-1.89,4.05-2.6,5.69-1.09,2.69-1.91,5.44t-1.13,3.91q-.31,1.16-.65,1.16a2.16,2.16,0,0,1-.59,0q-.8-.8,1.47-7.52.59-1.76,2.48-6.11t3.32-7.2q.42-.84.61-1.26c.13-.28.16-.42.1-.42a13.51,13.51,0,0,0-2,2q-1,1.09-2.75,2.79L242.75,31l-1.68,1.64v1.47q0,2.94-1.81,3.7a1.72,1.72,0,0,1-2.1-.34,1.51,1.51,0,0,1-.38-1.05,4,4,0,0,1,.59-1.55,14.93,14.93,0,0,1,1.26-2,2.58,2.58,0,0,0,.59-.94,11.2,11.2,0,0,0,.08-1.83,13.87,13.87,0,0,1,.21-2.65,2.61,2.61,0,0,1,1.32-1.68,1.23,1.23,0,0,1,1.57.21,1.08,1.08,0,0,1,.17,1.47.59.59,0,0,1-.92.17q-.59-.29-.71.38,0,.29-.08,1.3-.08.8-.13,1.3.17-.13.65-.57l.92-.86,1.13-1.07q.69-.65,1.34-1.3l1.47-1.49q.82-.84,1.57-1.68,1.89-2,4-4.47A18.29,18.29,0,0,0,254,16.42s-.12,0-.36-.06-.66,0-1.26,0l-2.39.13q-1.49.08-3.72.25t-2.86.13q-.63,0-.8-.21a.72.72,0,0,1-.21-.69.66.66,0,0,1,.46-.53,7.78,7.78,0,0,1,1.11-.17l1.91-.17q1.09-.08,2.33-.15l2.42-.13,2.16-.1,2.16-.08q.46-.71,1.55-2.56t1.6-2.67q.5-.82,1.39-2a20.4,20.4,0,0,1,1.72-2.1,3.29,3.29,0,0,1,1.24-1,.82.82,0,0,1,.9.36.57.57,0,0,1,.25.42,3,3,0,0,1-.25.84,16,16,0,0,1-1.81,3.13q-1.43,2.08-2.67,3.7a12.53,12.53,0,0,0-1.24,1.74,24.83,24.83,0,0,0,4.7.17h0q4.16,0,4.91.15T268,15.37ZM238.8,35.11q-.59,1-.34,1.09t.67-.63q.29-.63.17-.88T238.8,35.11Z"/><path d="M266.05,26.21q.42.38.08.76a11.15,11.15,0,0,1-1.85,1.34A34.27,34.27,0,0,1,257,32q-3.34,1.13-4.77.63a2.82,2.82,0,0,1-.8-.55,1.85,1.85,0,0,1-.44-2,5.61,5.61,0,0,1,1.83-2.6q2.1-2.06,3.86-2,1.22,0,1.22,1.13a2.72,2.72,0,0,1-.95,1.66,7.94,7.94,0,0,1-2.21,1.62,2.81,2.81,0,0,1-1,.4.74.74,0,0,1-.59-.31c-.17-.11-.28-.15-.34-.13s-.13.18-.21.46-.17.68,0,.78a2.42,2.42,0,0,0,1.22,0A19.75,19.75,0,0,0,261,28.39q3.57-2,4.24-2.27T266.05,26.21Zm-10.88,1.34-.36.21a3.58,3.58,0,0,0-.34.25l-.27.23c-.08.07-.14.1-.17.1l.42-.17a4.9,4.9,0,0,0,1.13-.8Z"/></g></g></svg>